<svg version="1.1" id="Layer_1" xmlns="http://www.w3.org/2000/svg" xmlns:xlink="http://www.w3.org/1999/xlink" x="0px" y="0px"
	 width="100%" viewBox="0 0 512 512" enable-background="new 0 0 512 512" xml:space="preserve">
<path fill="#013953" opacity="1.000000" stroke="none" 
	d="
M278.000000,513.000000 
	C264.312439,513.000000 250.624878,513.000000 236.299820,512.605591 
	C230.751389,511.794250 225.734482,511.879852 220.948364,510.870819 
	C202.960678,507.078674 185.223907,502.673096 168.198776,495.224457 
	C145.047577,485.095642 123.931412,471.993042 105.592026,454.796509 
	C95.534943,445.366089 86.442001,434.787872 77.746033,424.053467 
	C64.629623,407.862366 55.282669,389.404266 47.530560,370.102356 
	C39.497429,350.100677 34.722485,329.219177 33.271450,307.895355 
	C31.917877,288.003876 32.083378,267.884460 36.096363,248.163086 
	C40.319473,227.409103 46.250874,207.100006 56.367901,188.380951 
	C63.086983,175.948944 70.816719,164.063156 78.238457,151.692200 
	C73.643921,147.117111 68.380264,142.235916 63.531494,136.972534 
	C53.414764,125.990799 53.608379,105.872612 69.539391,96.975548 
	C79.429008,91.452446 92.143669,92.812065 100.642410,101.184189 
	C105.363503,105.834969 109.893150,110.680077 114.524857,115.453857 
	C151.753601,85.188461 193.975632,69.002731 240.636703,65.043533 
	C240.636703,53.904060 240.636703,43.503582 240.636703,33.001095 
	C229.115356,33.001095 217.955719,33.034439 206.796402,32.989243 
	C199.489258,32.959652 193.545288,26.496798 192.883514,19.257204 
	C192.092270,10.601288 195.800140,4.963151 203.000000,1.000000 
	C238.687561,1.000000 274.375122,1.000000 310.631531,1.340802 
	C319.542969,5.541843 323.025146,12.773903 320.961792,21.954952 
	C319.462891,28.624542 312.937927,33.001030 304.492584,33.001095 
	C294.065002,33.001175 283.637451,33.001114 273.143707,33.001114 
	C273.143707,43.910194 273.143707,54.200668 273.143707,65.108040 
	C321.111267,68.859665 363.746490,86.164017 401.088562,116.660019 
	C406.527679,111.133484 411.340179,106.056473 416.355408,101.188309 
	C425.672974,92.143944 437.743195,91.861725 446.193481,96.247406 
	C463.677368,105.321503 464.104980,127.209808 452.102081,138.432312 
	C446.876953,143.317688 441.853333,148.418594 436.486359,153.667969 
	C439.474670,158.100815 442.316284,162.196136 445.035706,166.371048 
	C456.194977,183.502823 465.015137,201.737198 471.004333,221.324203 
	C477.428345,242.333099 481.682098,263.685669 480.955811,285.765350 
	C480.527710,298.779968 480.660980,311.932922 478.721893,324.748260 
	C476.192657,341.463715 471.606659,357.785278 465.087860,373.555359 
	C454.880493,398.248718 441.126129,420.672333 423.030182,440.246552 
	C415.099274,448.825409 406.141876,456.508209 397.260773,464.144531 
	C379.519653,479.399139 359.093964,490.255554 337.454468,498.753571 
	C321.627869,504.968781 305.223663,509.298462 288.219391,511.073059 
	C284.783325,511.431671 281.404968,512.343323 278.000000,513.000000 
M446.298462,319.876099 
	C449.771210,300.886719 449.723785,281.910004 447.108215,262.773224 
	C442.171417,226.653290 428.178040,194.436981 404.898163,166.655334 
	C374.372162,130.226334 335.548279,107.681046 288.352875,99.698013 
	C263.191833,95.442062 238.339798,96.233055 213.631607,102.034142 
	C169.696213,112.349487 133.425842,135.186722 105.878120,170.862381 
	C69.865562,217.500397 57.642288,270.246307 69.074532,328.045074 
	C76.161484,363.875031 92.926987,394.990845 118.098343,421.478699 
	C141.108154,445.691925 168.694046,462.857056 200.556061,472.565125 
	C227.532837,480.784729 255.140167,483.250916 283.325867,479.139160 
	C307.062988,475.676422 329.490631,468.557648 350.282349,456.823181 
	C387.945526,435.566772 415.706665,405.064240 433.122223,365.388641 
	C439.393463,351.101654 444.068390,336.282776 446.298462,319.876099 
z"/>
<path fill="#FFFFFF" opacity="1.000000" stroke="none" 
	d="
M202.531342,1.000000 
	C195.800140,4.963151 192.092270,10.601288 192.883514,19.257204 
	C193.545288,26.496798 199.489258,32.959652 206.796402,32.989243 
	C217.955719,33.034439 229.115356,33.001095 240.636703,33.001095 
	C240.636703,43.503582 240.636703,53.904060 240.636703,65.043533 
	C193.975632,69.002731 151.753601,85.188461 114.524857,115.453857 
	C109.893150,110.680077 105.363503,105.834969 100.642410,101.184189 
	C92.143669,92.812065 79.429008,91.452446 69.539391,96.975548 
	C53.608379,105.872612 53.414764,125.990799 63.531494,136.972534 
	C68.380264,142.235916 73.643921,147.117111 78.238457,151.692200 
	C70.816719,164.063156 63.086983,175.948944 56.367901,188.380951 
	C46.250874,207.100006 40.319473,227.409103 36.096363,248.163086 
	C32.083378,267.884460 31.917877,288.003876 33.271450,307.895355 
	C34.722485,329.219177 39.497429,350.100677 47.530560,370.102356 
	C55.282669,389.404266 64.629623,407.862366 77.746033,424.053467 
	C86.442001,434.787872 95.534943,445.366089 105.592026,454.796509 
	C123.931412,471.993042 145.047577,485.095642 168.198776,495.224457 
	C185.223907,502.673096 202.960678,507.078674 220.948364,510.870819 
	C225.734482,511.879852 230.751389,511.794250 235.831161,512.605591 
	C157.702789,513.000000 79.405571,513.000000 1.054179,513.000000 
	C1.054179,342.448151 1.054179,171.896301 1.054179,1.000000 
	C68.020500,1.000000 135.041595,1.000000 202.531342,1.000000 
z"/>
<path fill="#FFFFFF" opacity="1.000000" stroke="none" 
	d="
M278.468658,513.000000 
	C281.404968,512.343323 284.783325,511.431671 288.219391,511.073059 
	C305.223663,509.298462 321.627869,504.968781 337.454468,498.753571 
	C359.093964,490.255554 379.519653,479.399139 397.260773,464.144531 
	C406.141876,456.508209 415.099274,448.825409 423.030182,440.246552 
	C441.126129,420.672333 454.880493,398.248718 465.087860,373.555359 
	C471.606659,357.785278 476.192657,341.463715 478.721893,324.748260 
	C480.660980,311.932922 480.527710,298.779968 480.955811,285.765350 
	C481.682098,263.685669 477.428345,242.333099 471.004333,221.324203 
	C465.015137,201.737198 456.194977,183.502823 445.035706,166.371048 
	C442.316284,162.196136 439.474670,158.100815 436.486359,153.667969 
	C441.853333,148.418594 446.876953,143.317688 452.102081,138.432312 
	C464.104980,127.209808 463.677368,105.321503 446.193481,96.247406 
	C437.743195,91.861725 425.672974,92.143944 416.355408,101.188309 
	C411.340179,106.056473 406.527679,111.133484 401.088562,116.660019 
	C363.746490,86.164017 321.111267,68.859665 273.143707,65.108040 
	C273.143707,54.200668 273.143707,43.910194 273.143707,33.001114 
	C283.637451,33.001114 294.065002,33.001175 304.492584,33.001095 
	C312.937927,33.001030 319.462891,28.624542 320.961792,21.954952 
	C323.025146,12.773903 319.542969,5.541843 311.100159,1.340802 
	C378.302277,1.000000 445.604584,1.000000 512.953430,1.000000 
	C512.953430,171.556931 512.953430,342.113892 512.953430,513.000000 
	C434.979401,513.000000 356.958374,513.000000 278.468658,513.000000 
z"/>
<path fill="#FEFEFE" opacity="1.000000" stroke="none" 
	d="
M446.210571,320.305542 
	C444.068390,336.282776 439.393463,351.101654 433.122223,365.388641 
	C415.706665,405.064240 387.945526,435.566772 350.282349,456.823181 
	C329.490631,468.557648 307.062988,475.676422 283.325867,479.139160 
	C255.140167,483.250916 227.532837,480.784729 200.556061,472.565125 
	C168.694046,462.857056 141.108154,445.691925 118.098343,421.478699 
	C92.926987,394.990845 76.161484,363.875031 69.074532,328.045074 
	C57.642288,270.246307 69.865562,217.500397 105.878120,170.862381 
	C133.425842,135.186722 169.696213,112.349487 213.631607,102.034142 
	C238.339798,96.233055 263.191833,95.442062 288.352875,99.698013 
	C335.548279,107.681046 374.372162,130.226334 404.898163,166.655334 
	C428.178040,194.436981 442.171417,226.653290 447.108215,262.773224 
	C449.723785,281.910004 449.771210,300.886719 446.210571,320.305542 
M384.109344,192.401718 
	C353.949036,153.745804 314.371552,133.086472 264.998566,129.443161 
	C264.998566,140.099365 265.068726,149.900833 264.971283,159.700623 
	C264.916138,165.250275 261.781311,168.804230 257.188080,168.923218 
	C252.396576,169.047348 249.132263,165.391983 249.019608,159.576889 
	C248.926025,154.746536 248.997818,149.912964 248.997253,145.080826 
	C248.996658,140.012024 248.997131,134.943237 248.997131,129.879410 
	C161.589188,133.210236 98.487427,208.647583 98.258774,280.997131 
	C100.054680,280.997131 101.853951,280.995605 103.653221,280.997375 
	C111.984383,281.005585 120.318565,280.883026 128.645554,281.073853 
	C133.492386,281.184906 136.779419,284.487885 136.923172,288.758270 
	C137.071732,293.171570 133.637482,296.768372 128.628799,296.929871 
	C122.303452,297.133850 115.967003,296.996094 109.635345,297.002106 
	C105.725349,297.005829 101.815346,297.002808 97.893738,297.002808 
	C101.031563,383.380920 175.459900,447.248993 248.758789,447.786102 
	C248.837051,446.668945 248.982193,445.534668 248.985626,444.399933 
	C249.012833,435.402313 248.883453,426.401886 249.072433,417.407990 
	C249.178329,412.368683 252.770935,408.951874 257.204468,409.076843 
	C261.468292,409.197052 264.668213,412.488892 264.943054,417.317963 
	C265.122711,420.474030 264.999786,423.647644 265.001556,426.813416 
	C265.005554,433.905579 265.002808,440.997742 265.002808,448.092133 
	C350.159576,445.142059 414.981293,371.927795 415.834503,297.002869 
	C414.040253,297.002869 412.247070,297.004120 410.453918,297.002625 
	C402.122742,296.995575 393.788605,297.118134 385.461456,296.931702 
	C380.392944,296.818268 376.982910,293.292023 377.076752,288.848938 
	C377.166718,284.590515 380.462067,281.378479 385.264496,281.052155 
	C387.587036,280.894348 389.928009,280.999573 392.260620,280.998535 
	C400.198914,280.995026 408.137207,280.997192 416.449890,280.997192 
	C414.495544,247.952042 403.996155,218.843460 384.109344,192.401718 
z"/>
<path fill="#6EBF5D" opacity="1.000000" stroke="none" 
	d="
M384.332397,192.680939 
	C403.996155,218.843460 414.495544,247.952042 416.449890,280.997192 
	C408.137207,280.997192 400.198914,280.995026 392.260620,280.998535 
	C389.928009,280.999573 387.587036,280.894348 385.264496,281.052155 
	C380.462067,281.378479 377.166718,284.590515 377.076752,288.848938 
	C376.982910,293.292023 380.392944,296.818268 385.461456,296.931702 
	C393.788605,297.118134 402.122742,296.995575 410.453918,297.002625 
	C412.247070,297.004120 414.040253,297.002869 415.834503,297.002869 
	C414.981293,371.927795 350.159576,445.142059 265.002808,448.092133 
	C265.002808,440.997742 265.005554,433.905579 265.001556,426.813416 
	C264.999786,423.647644 265.122711,420.474030 264.943054,417.317963 
	C264.668213,412.488892 261.468292,409.197052 257.204468,409.076843 
	C252.770935,408.951874 249.178329,412.368683 249.072433,417.407990 
	C248.883453,426.401886 249.012833,435.402313 248.985626,444.399933 
	C248.982193,445.534668 248.837051,446.668945 248.758789,447.786102 
	C175.459900,447.248993 101.031563,383.380920 97.893738,297.002808 
	C101.815346,297.002808 105.725349,297.005829 109.635345,297.002106 
	C115.967003,296.996094 122.303452,297.133850 128.628799,296.929871 
	C133.637482,296.768372 137.071732,293.171570 136.923172,288.758270 
	C136.779419,284.487885 133.492386,281.184906 128.645554,281.073853 
	C120.318565,280.883026 111.984383,281.005585 103.653221,280.997375 
	C101.853951,280.995605 100.054680,280.997131 98.258774,280.997131 
	C98.487427,208.647583 161.589188,133.210236 248.997131,129.879410 
	C248.997131,134.943237 248.996658,140.012024 248.997253,145.080826 
	C248.997818,149.912964 248.926025,154.746536 249.019608,159.576889 
	C249.132263,165.391983 252.396576,169.047348 257.188080,168.923218 
	C261.781311,168.804230 264.916138,165.250275 264.971283,159.700623 
	C265.068726,149.900833 264.998566,140.099365 264.998566,129.443161 
	C314.371552,133.086472 353.949036,153.745804 384.332397,192.680939 
M237.075424,302.275330 
	C243.775101,311.089020 252.409592,314.883087 263.356293,311.994110 
	C272.838501,309.491608 279.399780,301.408691 280.960754,291.667725 
	C281.390656,288.984924 282.787598,285.994293 284.684235,284.079224 
	C310.244263,258.270874 335.973328,232.630020 361.651093,206.938232 
	C363.062775,205.525772 364.530426,204.136490 365.736298,202.556488 
	C372.290558,193.968689 368.502289,181.489700 358.273346,177.976318 
	C351.102814,175.513428 345.367889,177.968201 340.231323,183.124557 
	C314.125671,209.330826 287.967194,235.484741 261.727081,261.556152 
	C260.103302,263.169464 257.717224,264.683350 255.526749,264.953400 
	C236.921463,267.247253 227.668839,285.098724 237.075424,302.275330 
z"/>
<path fill="#013A53" opacity="1.000000" stroke="none" 
	d="
M236.892578,301.953949 
	C227.668839,285.098724 236.921463,267.247253 255.526749,264.953400 
	C257.717224,264.683350 260.103302,263.169464 261.727081,261.556152 
	C287.967194,235.484741 314.125671,209.330826 340.231323,183.124557 
	C345.367889,177.968201 351.102814,175.513428 358.273346,177.976318 
	C368.502289,181.489700 372.290558,193.968689 365.736298,202.556488 
	C364.530426,204.136490 363.062775,205.525772 361.651093,206.938232 
	C335.973328,232.630020 310.244263,258.270874 284.684235,284.079224 
	C282.787598,285.994293 281.390656,288.984924 280.960754,291.667725 
	C279.399780,301.408691 272.838501,309.491608 263.356293,311.994110 
	C252.409592,314.883087 243.775101,311.089020 236.892578,301.953949 
z"/>
</svg>